<svg width="503" height="503" viewBox="0 0 502 502" fill="none" xmlns="http://www.w3.org/2000/svg">
<path d="M377.25 251.5H251.5V503H377.25V251.5Z" fill="#FE9C1A"/>
<path d="M503 251.5V377.25H125.75C91.0251 377.25 62.875 349.1 62.875 314.375C62.875 279.65 91.0251 251.5 125.75 251.5H503Z" fill="#3B82F6"/>
<path fill-rule="evenodd" clip-rule="evenodd" d="M0 503V377.25H125.75C160.475 377.25 188.625 405.4 188.625 440.125C188.625 474.85 160.475 503 125.75 503H0Z" fill="#9FDBFF"/>
<path d="M125.75 251.5C195.2 251.5 251.5 195.2 251.5 125.75C251.5 56.3002 195.2 0 125.75 0C56.3002 0 0 56.3002 0 125.75C0 195.2 56.3002 251.5 125.75 251.5Z" fill="#E2F78C"/>
<path d="M377.25 251.5C446.7 251.5 503 195.2 503 125.75C503 56.3002 446.7 0 377.25 0C307.8 0 251.5 56.3002 251.5 125.75C251.5 195.2 307.8 251.5 377.25 251.5Z" fill="#FFC3DF"/>
<path d="M125.75 0H0V251.5H125.75V0Z" fill="#418B5C"/>
<path d="M503 0H251.5V125.75H503V0Z" fill="#E14322"/>
</svg>
