<svg viewBox="0 0 1159 290" fill="none" xmlns="http://www.w3.org/2000/svg">
<path d="M1013.99 144.855H869.136V289.712H1013.99V144.855Z" fill="#FE9C1A"/>
<path d="M144.856 289.712C224.858 289.712 289.712 224.858 289.712 144.856C289.712 64.8543 224.858 0 144.856 0C64.8543 0 0 64.8543 0 144.856C0 224.858 64.8543 289.712 144.856 289.712Z" fill="#E2F78C"/>
<path d="M434.568 289.712C514.57 289.712 579.424 224.858 579.424 144.856C579.424 64.8543 514.57 0 434.568 0C354.566 0 289.712 64.8543 289.712 144.856C289.712 224.858 354.566 289.712 434.568 289.712Z" fill="#FFC3DF"/>
<path d="M144.856 0H0V289.712H144.856V0Z" fill="#418B5C"/>
<path d="M579.424 0H289.712V144.856H579.424V0Z" fill="#E14322"/>
<path d="M1158.85 0V144.856H724.28L723.344 144.851C683.775 144.35 651.852 112.116 651.852 72.4277C651.852 32.4271 684.279 0.00018557 724.28 0H1158.85Z" fill="#0C84FE"/>
<path fill-rule="evenodd" clip-rule="evenodd" d="M579.424 144.855H724.28C764.281 144.855 796.708 177.283 796.708 217.283C796.708 257.284 764.281 289.712 724.28 289.712H579.424V144.855Z" fill="#9FDBFF"/>
</svg>
